<?xml version="1.0" encoding="utf-8"?>
<svg xmlns="http://www.w3.org/2000/svg" width="1722" height="500">
  <path fill="#fbfcfc" d="M491 14c1.702 10.7 2.751 21.408 3.688 32.196.428 4.925.868 9.849 1.308 14.773l.263 2.938c.665 7.396 1.431 14.775 2.241 22.156 3.076 28.507 4.977 57.177 6.905 85.783.297 4.353.634 8.683 1.142 13.017.38 3.251.562 6.422.515 9.7l-.027 2.566L507 199c-4.527-1.368-8.447-3.191-12.578-5.484l-1.853-1.025q-1.933-1.071-3.862-2.148-2.903-1.619-5.812-3.226c-6.389-3.542-12.722-7.15-18.933-10.997-2.062-1.262-2.062-1.262-4.962-2.12l-.613 2.328c-1.95 5.162-4.753 9.693-7.574 14.422l-3.81 6.457c-.658 1.115-1.316 2.23-1.995 3.377-3.29 5.596-6.522 11.226-9.758 16.853a2352 2352 0 0 1-13.412 23.03c-4.4 7.458-8.71 14.967-13.032 22.471a3751 3751 0 0 1-12.743 21.937A2685 2685 0 0 0 381 311a3485 3485 0 0 1-20.287 35.073q-4.33 7.399-8.65 14.802l-1.734 2.97a4855 4855 0 0 0-13.079 22.592c-4.46 7.744-8.94 15.474-13.482 23.17a3891 3891 0 0 0-10.518 17.955l-1.788 3.068a79697 79697 0 0 0-14.464 24.817c-2.667 4.578-5.346 9.149-8.064 13.698l-1.415 2.375a795 795 0 0 1-2.588 4.306c-1.865 3.127-3.038 5.602-3.931 9.174H167c4.411-8.087 8.868-16.128 13.438-24.125l1.044-1.83c5.518-9.659 11.183-19.221 16.937-28.742 5.145-8.53 10.135-17.142 15.095-25.78q5.954-10.365 12.048-20.648c6.278-10.587 12.483-21.215 18.676-31.852q2.613-4.481 5.23-8.96c6.67-11.415 13.3-22.85 19.9-34.305q6.661-11.553 13.382-23.07l1.771-3.038c2.471-4.23 4.953-8.452 7.479-12.65 4.196 1.544 8.007 3.596 11.875 5.813l4.238 2.406 2.339 1.332c3.844 2.186 7.696 4.358 11.547 6.532 7.009 3.957 14.017 7.916 21.001 11.917-.332-13.884-1.167-27.593-2.768-41.39-1.541-13.652-2.451-27.349-3.409-41.053l-.175-2.498-.17-2.438c-.695-10.1-.695-10.1-1.822-20.158-.976-7.897 3.594-13.197 7.898-19.343 2.725-3.994 5.228-8.127 7.759-12.245l1.65-2.675q2.523-4.096 5.037-8.2l1.738-2.832q2.514-4.11 5.012-8.23c.513-.84 1.027-1.678 1.556-2.542l1.428-2.369 1.257-2.07c1.02-1.98 1.563-3.782 2.009-5.957l-2.158-.8c-2.958-1.249-5.565-2.727-8.307-4.395l-3.156-1.91-3.317-2.02C344.109 109.458 335.133 104.113 326 99c1-3 1-3 4.02-4.746a322 322 0 0 1 4.015-1.914l4.419-2.141 2.295-1.105c3.464-1.684 6.887-3.447 10.31-5.215l4.116-2.119 2.103-1.084 6.717-3.46q10.315-5.31 20.62-10.632l10.572-5.459 2.075-1.071a2135 2135 0 0 1 29.675-15.012c6.411-3.19 12.743-6.505 19.052-9.894 5.402-2.879 10.906-5.486 16.466-8.042 6.601-3.062 13.008-6.466 19.39-9.957l2.303-1.243 2.037-1.115C488 14 488 14 491 14"/>
  <path fill="#c2a157" d="M320 106c1.975 19.522 1.975 19.522 2.438 29.063.561 11.248 1.959 22.427 3.198 33.617.498 4.542.97 9.086 1.426 13.632.08.784.158 1.568.239 2.376.623 6.328 1.163 12.663 1.699 19 .564 6.66 1.187 13.302 2 19.937 1.666 13.611 3.028 27.258 3.658 40.959.134 2.727.327 5.342.865 8.021.555 2.786.574 5.37.54 8.207l-.028 2.958L336 286c-5.93-2.244-11.297-5.398-16.812-8.5l-3.37-1.887c-7.202-4.062-14.29-8.257-21.222-12.767-3.047-2.153-3.047-2.153-6.596-2.846l-1.871 3.41q-1.282 2.327-2.567 4.652l-1.216 2.221c-3.508 6.347-7.226 12.561-10.97 18.77-2.312 3.835-4.601 7.682-6.884 11.533l-1.132 1.909-2.3 3.88A5720 5720 0 0 1 242.5 337.5c-5.7 9.48-11.358 18.985-17 28.5a7267 7267 0 0 1-22.84 38.238 5038 5038 0 0 0-4.656 7.766 3500 3500 0 0 1-13.07 21.687l-1.078 1.771-4.39 7.215a1627 1627 0 0 0-16.18 27.133l-1.454 2.483-1.227 2.11L159 477l-1.097 2.186c-3.51 6.311-3.51 6.311-7.176 7.634-2.81.29-5.498.294-8.322.202l-3.195.004c-3.475-.007-6.946-.076-10.42-.147q-3.62-.025-7.24-.039c-6.343-.034-12.684-.122-19.027-.222-6.475-.092-12.95-.133-19.425-.179A5108 5108 0 0 1 45 486q.942-1.904 1.887-3.804l1.061-2.14c1.44-2.813 3.052-5.497 4.704-8.189l2.084-3.408 1.088-1.77c1.912-3.114 3.813-6.234 5.715-9.353l1.156-1.895A1274 1274 0 0 0 72.813 438.5a2335 2335 0 0 1 11.812-19.875c6.19-10.289 12.315-20.616 18.438-30.945A5197 5197 0 0 1 119 361l7.345-12.243q3.707-6.18 7.42-12.355a6490 6490 0 0 0 19.982-33.505c6.3-10.62 12.628-21.224 18.995-31.805q2.976-4.95 5.946-9.904l2.18-3.633 1.069-1.783 4.281-7.135 2.18-3.637c2.25-3.76 4.52-7.509 6.801-11.25l1.657-2.73q1.617-2.664 3.247-5.32l1.49-2.462 1.335-2.186c1.056-2.021 1.623-3.824 2.072-6.052l-2.937-1.617a492 492 0 0 1-25.204-14.953 302 302 0 0 0-7.718-4.735l-1.832-1.093q-2.461-1.462-4.93-2.91C160 188 160 188 159 185l1.762-.835a1928 1928 0 0 0 40.784-19.932q3.32-1.667 6.65-3.315c7.47-3.703 14.869-7.522 22.242-11.418 6.96-3.676 13.97-7.163 21.12-10.452 5.141-2.385 10.154-4.962 15.153-7.63 9.49-5.027 19.047-9.907 28.647-14.717q4.047-2.034 8.087-4.08l5.18-2.598 2.424-1.23 2.24-1.116 1.96-.985C317 106 317 106 320 106"/>
  <path fill="#fdfdfd" d="M1530 72h31c5.203 5.78 10.183 11.368 14.973 17.438 3.615 4.57 7.331 9.057 11.027 13.562l4.5 5.5 2.25 2.75 6.75 8.25 2.27 2.773 4.304 5.266A5437 5437 0 0 0 1621 144.5c13.775 16.719 13.775 16.719 20 24.5l1-97h37v162h-32l-40.5-49.5-2.27-2.773-4.304-5.266A5468 5468 0 0 0 1586 159.5l-8.475-10.288-3.775-4.587-2.078-2.523C1570 140 1570 140 1568 137l-1 97h-37zM565 72h31c10.161 11.29 10.161 11.29 14.313 16.75A319 319 0 0 0 622 103a323 323 0 0 1 11.5 14c4.25 5.486 8.682 10.779 13.224 16.025 3.55 4.107 6.983 8.29 10.35 12.55 2.778 3.498 5.619 6.944 8.457 10.394 3.519 4.32 6.988 8.68 10.469 13.031l1-97h37v162h-32l-8-10c-1.37-1.69-2.745-3.38-4.125-5.062l-2.258-2.754c-3.813-4.641-7.633-9.276-11.452-13.911A5415 5415 0 0 1 642 185l-4.5-5.5-20.227-24.723q-2.364-2.889-4.734-5.773l-4.594-5.594c-1.695-2.1-3.326-4.251-4.945-6.41l-1 97h-37zM1119 72h38c7.421 15.791 14.645 31.635 21.625 47.625a3204 3204 0 0 0 19 42.688 5569 5569 0 0 1 18.188 40.437l.984 2.214a2104 2104 0 0 1 9.652 21.99l1.491 3.457C1229 233 1229 233 1229 234h-39c-3.646-7.9-7.17-15.666-10.312-23.75q-1.023-2.619-2.051-5.234l-.884-2.273c-.623-1.736-.623-1.736-1.753-2.743-2.3-.094-4.604-.117-6.906-.114h-2.188c-2.397 0-4.794.009-7.191.016l-4.973.005q-6.558.006-13.114.024-6.687.014-13.372.02-13.128.016-26.256.049-1.43 3.075-2.856 6.15l-1.607 3.458c-2.11 4.655-3.998 9.38-5.85 14.142q-1.02 2.619-2.05 5.234l-.884 2.273C1087 233 1087 233 1086 234c-2.812.089-5.599.115-8.41.098l-2.552-.005c-2.7-.005-5.4-.018-8.1-.03q-2.74-.008-5.479-.014-6.73-.017-13.459-.049c2.286-7.357 5.24-14.246 8.438-21.25q1.758-3.884 3.511-7.77l.958-2.117c3.894-8.619 7.725-17.265 11.56-25.91a11731 11731 0 0 1 19.124-42.898c9.254-20.634 18.344-41.338 27.409-62.055"/>
  <path fill="#fcfcfc" d="M879 308c87.513 0 87.513 0 99.5 6.75l1.99 1.065c12.33 6.765 20.742 15.69 25.565 29.123 1.451 5.21 1.274 10.504 1.258 15.875l.048 3.119c.009 13.724-4.724 24.916-14.08 34.935-12.417 11.61-29.884 16.52-46.566 16.328l-2.854-.008c-2.974-.011-5.949-.036-8.923-.062q-3.047-.016-6.092-.027c-4.95-.02-9.897-.06-14.846-.098v41h-35z"/>
  <path fill="#fdfdfd" d="M752 72h122v30h-85v35h76v30h-76v37h88v30H752z"/>
  <path fill="#fefefe" d="M1375 72h122v30h-85v35h75v29h-75v38h88v30h-125z"/>
  <path fill="#fdfdfd" d="M1270 308h35l3.742 8.438c8.459 19.061 16.936 38.114 25.508 57.125a8085 8085 0 0 1 22.027 49.291q2.661 6.01 5.334 12.011 1.948 4.38 3.889 8.76l1.404 3.144 1.252 2.833c.36.807.718 1.615 1.088 2.447C1370 454 1370 454 1370 456h-36c-5.937-14.937-5.937-14.937-7.808-19.656l-1.47-3.684-.769-1.947c-1.092-3.09-1.092-3.09-2.953-5.713a137 137 0 0 0-6.356-.114h-2.01c-2.202 0-4.404.009-6.607.016l-4.57.005q-6.023.006-12.048.024c-4.815.012-9.63.017-14.445.023-7.321.01-14.643.029-21.964.046l-13 31h-35c2.039-6.117 4.132-11.817 6.816-17.625l1.116-2.447q1.189-2.605 2.384-5.209c2.157-4.704 4.297-9.414 6.438-14.125l1.333-2.933c4.392-9.682 8.661-19.417 12.913-29.161 7.074-16.204 14.306-32.331 21.633-48.422l1.155-2.54a2573 2573 0 0 1 2.095-4.595c3.155-6.937 6.112-13.932 9.117-20.943M767.235 307.886q2.15 0 4.3.016l2.283.005c2.415.005 4.83.018 7.245.03q2.45.008 4.9.014 6.018.017 12.037.049c8.441 18.28 16.755 36.61 24.813 55.062a3295 3295 0 0 0 19.062 42.813l5.868 12.942a6324 6324 0 0 1 10.445 23.12l1.513 3.338 1.342 3.002 1.157 2.57C863 453 863 453 863 456h-35c-7.012-15.193-7.012-15.193-9.875-22.188l-.93-2.228C815 426.248 815 426.248 815 424h-69l-3 9q-1.078 2.842-2.227 5.656c-.391.96-.783 1.918-1.187 2.906l-1.211 2.938-1.234 3.031c-3.012 7.34-3.012 7.34-4.141 8.469-2.594.089-5.16.115-7.754.098l-2.35-.005c-2.486-.005-4.972-.018-7.458-.03q-2.523-.008-5.045-.014-6.196-.017-12.393-.049c1.517-4.874 3.458-9.436 5.57-14.07l1.07-2.366q1.14-2.525 2.287-5.048c2.056-4.533 4.103-9.07 6.151-13.606l1.265-2.8a4277 4277 0 0 0 11.532-25.798l5.937-13.38q5.656-12.746 11.319-25.49l3.78-8.515q3.54-7.966 7.089-15.927l1.274-2.862a6044 6044 0 0 1 3.761-8.42l1.164-2.613 1.07-2.388.943-2.109c1.407-2.872 1.506-2.598 5.023-2.722M884 72h41l3.348 7.945q13.919 33.023 27.965 65.993l1.487 3.49A13725 13725 0 0 0 973 185c2.298-2.856 3.833-5.593 5.25-8.969l1.313-3.1L981 169.5l2.378-5.611q.872-2.055 1.742-4.11c3.595-8.487 7.256-16.944 10.914-25.403l3.65-8.45Q1011.337 98.962 1023 72h37c-.752 3.761-1.447 6.359-2.94 9.766l-1.22 2.809-1.336 3.03-1.394 3.196q-1.488 3.412-2.984 6.82c-2.386 5.441-4.759 10.887-7.133 16.333l-2.414 5.533A4340 4340 0 0 0 1027 151a9472 9472 0 0 1-21.375 49.563l-1.525 3.513-4.31 9.928-1.29 2.968-1.22 2.808-1.047 2.408c-1.73 3.944-3.484 7.877-5.233 11.812h-37c-6.882-13.764-6.882-13.764-9.82-20.742l-1.02-2.392q-1.082-2.542-2.16-5.087c-1.975-4.66-3.963-9.313-5.95-13.966l-1.253-2.94c-4.528-10.605-9.128-21.177-13.735-31.748a15034 15034 0 0 1-22.708-52.414c-.37-.859-.742-1.718-1.123-2.604q-1.08-2.5-2.156-5.002a1236 1236 0 0 0-5.17-11.84l-.997-2.253a953 953 0 0 0-1.862-4.173C884 74.221 884 74.221 884 72M689.383 322.824c3.839 3.172 5.973 5.383 7.617 10.176l-1.8 1.617A4014 4014 0 0 0 676 352l-2.875-2.625c-13.166-11.187-26.898-14.667-43.874-13.603-10.625 1.074-20.355 7.51-27.618 15.11-6.653 8.627-10.024 18.694-9.883 29.493l.02 2.276c.1 5.336.521 10.262 2.23 15.349l.777 2.441c4.331 12.175 11.968 18.845 23.309 24.622 11.076 5.03 26.21 4.667 37.601.875 5.91-2.448 10.56-5.713 15.313-9.938a723 723 0 0 1 5-4l1.39 1.313a6136 6136 0 0 0 6.298 5.937l2.185 2.066c3.6 3.387 7.197 6.676 11.127 9.684-1.571 3.857-3.976 6.178-7 9l-1.39 1.406c-16.255 15.434-38.754 17.114-59.88 16.864-17.553-.494-34.687-7.406-47.73-19.27l-2.48-2.168c-15.116-14.018-22.081-33.71-22.855-53.986-.354-19.013 6.486-37.704 19.335-51.846l1.98-2.258c28.487-30.613 80.455-30.376 112.403-5.918M1244 72h94c.08 28.257.08 28.257.1 42.273q.016 11.345.05 22.688.034 9.95.04 19.9.004 3.786.021 7.573c.015 3.549.017 7.098.016 10.647l.022 3.128c-.046 16.233-3.891 31.858-15.28 43.947-13.332 12.58-30.847 15.646-48.64 15.149-15.708-.851-33.625-7.443-44.329-19.305a165 165 0 0 1-3-4c1.553-3.514 3.666-6.186 6.125-9.125a372 372 0 0 0 11.148-14.074L1246 189h3c1.508 1.54 1.508 1.54 3.125 3.625 5.784 6.897 12.919 11.74 22.023 12.71 7.744.095 13.517-.378 19.375-5.726 6.495-7.133 6.61-16.576 6.682-25.747l.03-2.368q.047-3.839.081-7.678l.063-5.35q.082-7.016.153-14.032.092-8.43.19-16.863c.098-8.523.187-17.047.278-25.571h-57z"/>
  <path fill="#fdfefe" d="M1084 308h129v28h-47v120h-34V336h-48z"/>
  <path fill="#fefefe" d="M1386 308h34v120h74v28h-108zM1032 308h34v148h-34z"/>
</svg>