<?xml version="1.0" encoding="utf-8"?>
<svg version="1.1" xmlns="http://www.w3.org/2000/svg" width="1722" height="500">
  <path d="M0 0 C1.70215567 10.7000678 2.75141009 21.40770671 3.68847656 32.19631958 C4.11636452 37.12117358 4.55574019 42.04499702 4.99609375 46.96875 C5.12599197 48.4234243 5.12599197 48.4234243 5.2585144 49.90748596 C5.92431092 57.30254618 6.6900055 64.68180319 7.5 72.0625 C10.57625961 100.57002339 12.47696394 129.24018314 14.40454102 157.84594727 C14.70172353 162.19896695 15.03897584 166.52935757 15.546875 170.86328125 C15.92646392 174.11398902 16.10865972 177.28516019 16.0625 180.5625 C16.05347656 181.40941406 16.04445313 182.25632813 16.03515625 183.12890625 C16.01775391 184.05509766 16.01775391 184.05509766 16 185 C11.47323296 183.63223674 7.55316848 181.80893871 3.421875 179.515625 C2.50465668 179.00850983 2.50465668 179.00850983 1.56890869 178.4911499 C0.28014309 177.77738529 -1.00729408 177.06121729 -2.29345703 176.34277344 C-4.22792938 175.26232694 -6.16625863 174.18910278 -8.10546875 173.1171875 C-14.49384459 169.57546243 -20.82664738 165.96704883 -27.03808594 162.12011719 C-29.10049907 160.85775137 -29.10049907 160.85775137 -32 160 C-32.20238281 160.76828125 -32.40476562 161.5365625 -32.61328125 162.328125 C-34.56254779 167.48956317 -37.36598075 172.02100179 -40.1875 176.75 C-41.45773115 178.90193077 -42.72723712 181.05428973 -43.99609375 183.20703125 C-44.65464355 184.32158691 -45.31319336 185.43614258 -45.99169922 186.58447266 C-49.28209885 192.18047203 -52.51445171 197.80966949 -55.75 203.4375 C-60.18323228 211.13640598 -64.64196861 218.81815444 -69.16210938 226.46630859 C-73.56146249 233.92475513 -77.87275043 241.43389146 -82.19360352 248.93798828 C-86.41542154 256.26580908 -90.66623219 263.57591314 -94.9375 270.875 C-100.01289353 279.55254109 -105.02244633 288.26613678 -110 297 C-116.6883723 308.73457028 -123.46227448 320.41717256 -130.28662109 332.07324219 C-133.1738118 337.00508063 -136.0564482 341.9395733 -138.9375 346.875 C-139.50968262 347.85509033 -140.08186523 348.83518066 -140.67138672 349.8449707 C-145.05518413 357.36189031 -149.4066862 364.89713099 -153.75 372.4375 C-158.21051695 380.18083966 -162.68983604 387.91145952 -167.23242188 395.60693359 C-170.75806509 401.58061959 -174.25635735 407.5700487 -177.75 413.5625 C-178.34014893 414.57465576 -178.93029785 415.58681152 -179.53833008 416.62963867 C-181.35913268 419.75294916 -183.17962247 422.87644175 -185 426 C-186.82144531 429.12539043 -188.64300167 432.2507156 -190.46508789 435.37573242 C-191.64457382 437.3989759 -192.82345858 439.42256996 -194.00170898 441.4465332 C-196.66943245 446.02504165 -199.34815047 450.59581211 -202.06640625 455.14453125 C-202.53336914 455.92836182 -203.00033203 456.71219238 -203.48144531 457.51977539 C-204.33968746 458.95778751 -205.20201832 460.39337107 -206.06933594 461.82592773 C-207.93352453 464.95304409 -209.10688071 467.42752284 -210 471 C-247.62 471 -285.24 471 -324 471 C-319.5887728 462.91275014 -315.13156561 454.87166212 -310.5625 446.875 C-310.21784698 446.27117493 -309.87319397 445.66734985 -309.51809692 445.04522705 C-303.99963376 435.38629822 -298.33500649 425.82369483 -292.58081055 416.30297852 C-287.43577828 407.77389271 -282.44632957 399.16112357 -277.48632812 390.5234375 C-273.5155639 383.61306039 -269.50224579 376.73050376 -265.4375 369.875 C-259.1604372 359.2877962 -252.95491391 348.65987422 -246.76171875 338.0234375 C-245.02047583 335.03514034 -243.27638208 332.04852736 -241.53125 329.0625 C-234.86183252 317.64827642 -228.23116373 306.21259777 -221.63208008 294.75756836 C-217.19235204 287.0552645 -212.72983391 279.36654514 -208.25 271.6875 C-207.37311523 270.18413086 -207.37311523 270.18413086 -206.47851562 268.65039062 C-204.00794821 264.41972666 -201.5264798 260.19759236 -199 256 C-194.80417611 257.54374653 -190.99309621 259.59644947 -187.125 261.8125 C-185.71225127 262.61460391 -184.29949006 263.41668585 -182.88671875 264.21875 C-182.11505371 264.65832031 -181.34338867 265.09789062 -180.54833984 265.55078125 C-176.70431345 267.73684569 -172.85238648 269.90887598 -169.00146484 272.08276367 C-161.99215609 276.03981168 -154.98444831 279.99919951 -148 284 C-148.33154137 270.1155601 -149.16740564 256.40659998 -150.76831055 242.6105957 C-152.30934872 228.95753824 -153.21912825 215.26118481 -154.17687988 201.55723572 C-154.26334778 200.32040794 -154.26334778 200.32040794 -154.3515625 199.05859375 C-154.40775757 198.25422379 -154.46395264 197.44985382 -154.52185059 196.62110901 C-155.21742541 186.52129607 -155.21742541 186.52129607 -156.34350586 176.46337891 C-157.32027049 168.56624109 -152.75004412 163.26632101 -148.44628906 157.11962891 C-145.72140945 153.12614396 -143.21814373 148.99319511 -140.6875 144.875 C-140.14295166 143.99231445 -139.59840332 143.10962891 -139.03735352 142.20019531 C-137.35445858 139.46909724 -135.67640525 136.73508583 -134 134 C-133.42652832 133.06559082 -132.85305664 132.13118164 -132.26220703 131.16845703 C-130.58482776 128.42878498 -128.91590444 125.68416152 -127.25 122.9375 C-126.73655029 122.09880371 -126.22310059 121.26010742 -125.6940918 120.39599609 C-125.22269775 119.61434082 -124.75130371 118.83268555 -124.265625 118.02734375 C-123.85086914 117.34406006 -123.43611328 116.66077637 -123.00878906 115.95678711 C-121.98838445 113.97746887 -121.44583225 112.17479886 -121 110 C-121.7122876 109.73590332 -122.4245752 109.47180664 -123.15844727 109.19970703 C-126.11559918 107.95119388 -128.72328961 106.47251169 -131.46484375 104.8046875 C-132.50648682 104.1744165 -133.54812988 103.54414551 -134.62133789 102.89477539 C-135.71567139 102.22824951 -136.81000488 101.56172363 -137.9375 100.875 C-146.891632 95.45803143 -155.86859349 90.11293424 -165 85 C-164 82 -164 82 -160.98022461 80.25366211 C-159.64638291 79.60612138 -158.3075039 78.96889575 -156.96484375 78.33984375 C-155.4915668 77.62708511 -154.01876104 76.91335185 -152.54638672 76.19873047 C-151.41024933 75.65209747 -151.41024933 75.65209747 -150.25115967 75.09442139 C-146.78650869 73.41005036 -143.36379503 71.64718094 -139.94140625 69.87890625 C-138.5694249 69.17267407 -137.19743585 68.46645686 -135.82543945 67.76025391 C-135.13116852 67.4023175 -134.43689758 67.0443811 -133.72158813 66.67559814 C-131.48308865 65.5215602 -129.24392489 64.36881916 -127.00463867 63.21630859 C-120.12915142 59.67690854 -113.25593397 56.13313299 -106.38551331 52.58390808 C-102.86158047 50.76348733 -99.33716743 48.94399798 -95.8125 47.125 C-95.12777618 46.77156525 -94.44305237 46.41813049 -93.73757935 46.0539856 C-83.8849728 40.97096122 -73.9942288 35.97152859 -64.06347656 31.04248047 C-57.65184802 27.85222301 -51.31976628 24.53672253 -45.01123047 21.14819336 C-39.60947039 18.26930523 -34.10542323 15.66199975 -28.54467773 13.10644531 C-21.94394138 10.04430322 -15.53746762 6.64029534 -9.15478516 3.14868164 C-8.39472168 2.7386792 -7.6346582 2.32867676 -6.8515625 1.90625 C-6.17947754 1.53822266 -5.50739258 1.17019531 -4.81494141 0.79101562 C-3 0 -3 0 0 0 Z " fill="#FBFCFC" transform="translate(491,14)"/>
  <path d="M0 0 C1.97494896 19.52238488 1.97494896 19.52238488 2.4375 29.0625 C2.99925341 40.31133676 4.39687659 51.48993369 5.63574219 62.6796875 C6.13403228 67.22174196 6.60692088 71.76597795 7.0625 76.3125 C7.14105225 77.09641113 7.21960449 77.88032227 7.30053711 78.68798828 C7.92378515 85.01645276 8.46362162 91.35117344 9 97.6875 C9.56426925 104.34807916 10.18682509 110.99003324 11 117.625 C12.66633572 131.23641821 14.02762867 144.88254017 14.65844727 158.58398438 C14.79213938 161.31116675 14.98503494 163.92550973 15.5234375 166.60546875 C16.07775346 169.39067929 16.09668134 171.97544856 16.0625 174.8125 C16.04896484 176.27623047 16.04896484 176.27623047 16.03515625 177.76953125 C16.01775391 178.87361328 16.01775391 178.87361328 16 180 C10.06955045 177.7560823 4.70320096 174.60194288 -0.8125 171.5 C-1.92439697 170.87722168 -3.03629395 170.25444336 -4.18188477 169.61279297 C-11.38441055 165.55143388 -18.47253074 161.3556518 -25.40356445 156.84570312 C-28.45090724 154.69252465 -28.45090724 154.69252465 -32 154 C-32.61746094 155.12535156 -33.23492187 156.25070312 -33.87109375 157.41015625 C-34.72641728 158.9610176 -35.58189457 160.51179415 -36.4375 162.0625 C-36.83904297 162.79533203 -37.24058594 163.52816406 -37.65429688 164.28320312 C-41.16245329 170.63002046 -44.88039765 176.84423355 -48.62426758 183.0534668 C-50.93573896 186.88763273 -53.22521303 190.73452902 -55.5078125 194.5859375 C-55.88130325 195.21586105 -56.25479401 195.84578461 -56.63960266 196.49479675 C-57.40639379 197.78822413 -58.17309094 199.08170722 -58.93969727 200.37524414 C-65.09899511 210.76675983 -71.27497384 221.14767755 -77.5 231.5 C-83.20047055 240.98011352 -88.85777805 250.485164 -94.5 260 C-102.07321411 272.77030273 -109.68896958 285.51410674 -117.34033203 298.23779297 C-118.8948301 300.82496436 -120.44624878 303.4139454 -121.99609375 306.00390625 C-126.33127114 313.24628874 -130.67892605 320.48055279 -135.06640625 327.69140625 C-135.42196091 328.27581482 -135.77751556 328.86022339 -136.1438446 329.46234131 C-137.60726427 331.86746306 -139.07072812 334.27255768 -140.53475952 336.67730713 C-146.00998335 345.67390114 -151.41484678 354.70854862 -156.71459961 363.81005859 C-157.19421143 364.62941895 -157.67382324 365.4487793 -158.16796875 366.29296875 C-158.77547974 367.33747192 -158.77547974 367.33747192 -159.39526367 368.40307617 C-159.92482666 369.26006104 -160.45438965 370.1170459 -161 371 C-161.36191909 371.72152378 -161.72383818 372.44304756 -162.09672451 373.1864357 C-165.60619614 379.49706666 -165.60619614 379.49706666 -169.27258205 380.82002735 C-172.08302108 381.10918493 -174.77119393 381.11418775 -177.59521484 381.02172852 C-178.64947662 381.02304276 -179.7037384 381.02435699 -180.78994751 381.02571106 C-184.26532322 381.0194539 -187.73632349 380.94952225 -191.2109375 380.87890625 C-193.62372464 380.8621153 -196.03654252 380.84930644 -198.44937134 380.84031677 C-204.79267451 380.80599189 -211.13411586 380.71761655 -217.47668457 380.61798096 C-223.95164807 380.52582906 -230.42691317 380.48479067 -236.90234375 380.43945312 C-249.60235576 380.34299873 -262.30107876 380.19117634 -275 380 C-274.37225023 378.73124664 -273.74295514 377.46325782 -273.11302185 376.19558716 C-272.76275153 375.48939302 -272.41248121 374.78319889 -272.05159664 374.05560493 C-270.61263941 371.24280822 -269.00043217 368.5591575 -267.34765625 365.8671875 C-266.66018311 364.74248047 -265.97270996 363.61777344 -265.2644043 362.45898438 C-264.72582291 361.58246216 -264.72582291 361.58246216 -264.17636108 360.68823242 C-262.26403193 357.57518962 -260.3627185 354.45543162 -258.4609375 351.3359375 C-257.88870705 350.39793304 -257.88870705 350.39793304 -257.30491638 349.440979 C-253.8823823 343.82338783 -250.52264618 338.16990241 -247.1875 332.5 C-243.27874105 325.85732082 -239.34935487 319.22865908 -235.375 312.625 C-229.18467456 302.33636167 -223.05965499 292.00917638 -216.93701172 281.68017578 C-211.6535396 272.76931535 -206.33666247 263.87909671 -201 255 C-199.97247607 253.28786854 -198.9451082 251.5756434 -197.91796875 249.86328125 C-197.46800537 249.11336914 -197.01804199 248.36345703 -196.55444336 247.59082031 C-195.58771496 245.97954875 -194.62109107 244.36821449 -193.65454102 242.75683594 C-191.18337404 238.63733132 -188.71101443 234.51856099 -186.234375 230.40234375 C-179.53279832 219.2582417 -172.88716366 208.08150496 -166.25271606 196.89736938 C-159.95212096 186.27684441 -153.62535217 175.67265271 -147.25830078 165.09179688 C-145.27341895 161.79213301 -143.29307565 158.48974969 -141.3125 155.1875 C-140.58596124 153.97654826 -139.85939914 152.76561052 -139.1328125 151.5546875 C-138.60349121 150.67248535 -138.60349121 150.67248535 -138.06347656 149.77246094 C-134.8671875 144.4453125 -134.8671875 144.4453125 -133.78198242 142.63720703 C-133.05491173 141.42504412 -132.32850698 140.21248151 -131.6027832 138.99951172 C-129.35165912 135.2396399 -127.08247538 131.49141149 -124.80078125 127.75 C-124.25397705 126.84918701 -123.70717285 125.94837402 -123.14379883 125.02026367 C-122.0657627 123.24445814 -120.98370227 121.47108806 -119.8972168 119.70043945 C-119.40519775 118.88792725 -118.91317871 118.07541504 -118.40625 117.23828125 C-117.96603516 116.51680908 -117.52582031 115.79533691 -117.07226562 115.05200195 C-116.01606951 113.03075233 -115.4488696 111.22773482 -115 109 C-115.969375 108.46632813 -116.93875 107.93265625 -117.9375 107.3828125 C-126.49906963 102.63668982 -134.87628409 97.67556895 -143.140625 92.4296875 C-145.69151525 90.81189282 -148.26115677 89.23593118 -150.859375 87.6953125 C-151.46370361 87.33445557 -152.06803223 86.97359863 -152.69067383 86.60180664 C-154.33078156 85.62599412 -155.97577629 84.65840878 -157.62109375 83.69140625 C-160 82 -160 82 -161 79 C-160.12770752 78.58657349 -160.12770752 78.58657349 -159.23779297 78.16479492 C-145.56338046 71.67540194 -131.97189661 65.04226604 -118.45410156 58.23291016 C-116.24095408 57.12105234 -114.02421722 56.01701642 -111.8046875 54.91796875 C-104.33371327 51.21510191 -96.93499129 47.39558963 -89.5625 43.5 C-82.60149171 39.82420142 -75.59280059 36.33666957 -68.44142151 33.0484314 C-63.30064271 30.66349092 -58.28790041 28.0856563 -53.2890625 25.41796875 C-43.79993888 20.39139492 -34.2417268 15.51149663 -24.64160156 10.70068359 C-21.94309563 9.34644263 -19.24896571 7.98372278 -16.5546875 6.62109375 C-14.82838579 5.75468851 -13.10183323 4.88878287 -11.375 4.0234375 C-10.57513672 3.61733246 -9.77527344 3.21122742 -8.95117188 2.79281616 C-8.21189453 2.42467804 -7.47261719 2.05653992 -6.7109375 1.67724609 C-6.06431152 1.35211029 -5.41768555 1.02697449 -4.75146484 0.69198608 C-3 0 -3 0 0 0 Z " fill="#C2A157" transform="translate(320,106)"/>
  <path d="M0 0 C10.23 0 20.46 0 31 0 C36.20284253 5.78093615 41.18306097 11.36751786 45.97265625 17.4375 C49.58806903 22.00727029 53.30403201 26.49534158 57 31 C58.50028317 32.83310162 60.00028408 34.66643427 61.5 36.5 C62.2425 37.4075 62.985 38.315 63.75 39.25 C66 42 68.25 44.75 70.5 47.5 C71.24894531 48.41523437 71.99789063 49.33046875 72.76953125 50.2734375 C74.20499935 52.02817784 75.63993796 53.78335155 77.07421875 55.5390625 C81.70323827 61.20340802 86.3481597 66.85438841 91 72.5 C104.77511521 89.21889401 104.77511521 89.21889401 111 97 C111.33 64.99 111.66 32.98 112 0 C124.21 0 136.42 0 149 0 C149 53.46 149 106.92 149 162 C138.44 162 127.88 162 117 162 C103.5 145.5 90 129 76.5 112.5 C75.75105469 111.58476562 75.00210937 110.66953125 74.23046875 109.7265625 C72.79500065 107.97182216 71.36006204 106.21664845 69.92578125 104.4609375 C65.29676116 98.7965913 60.65171075 93.14571897 56 87.5 C54.2153904 85.33309375 52.43089515 83.16609342 50.64648438 80.99902344 C49.60648964 79.73634893 48.56616837 78.47394324 47.52539062 77.21191406 C46.26562444 75.68401582 45.00773631 74.15456964 43.75 72.625 C43.06421875 71.79226562 42.3784375 70.95953125 41.671875 70.1015625 C40 68 40 68 38 65 C37.67 97.01 37.34 129.02 37 162 C24.79 162 12.58 162 0 162 C0 108.54 0 55.08 0 0 Z " fill="#FDFDFD" transform="translate(1530,72)"/>
  <path d="M0 0 C10.23 0 20.46 0 31 0 C41.16125871 11.29028746 41.16125871 11.29028746 45.3125 16.75 C49.07664084 21.62250094 52.96171231 26.35241765 57 31 C60.96838643 35.56992772 64.79371698 40.21502766 68.5 45 C72.74990358 50.48602938 77.18215871 55.77855144 81.72387695 61.0246582 C85.27442294 65.1318797 88.7069854 69.31463371 92.07421875 73.57421875 C94.85188886 77.07306893 97.69290176 80.51906521 100.53125 83.96875 C104.04983658 88.28903985 107.51930167 92.64912709 111 97 C111.33 64.99 111.66 32.98 112 0 C124.21 0 136.42 0 149 0 C149 53.46 149 106.92 149 162 C138.44 162 127.88 162 117 162 C114.36 158.7 111.72 155.4 109 152 C107.6292274 150.30906425 106.25513508 148.62080283 104.875 146.9375 C104.12992188 146.02871094 103.38484375 145.11992187 102.6171875 144.18359375 C98.80426962 139.5428911 94.98417354 134.90809036 91.16479492 130.27270508 C86.43023628 124.52566053 81.71081214 118.76653087 77 113 C75.50014304 111.16654964 74.0001406 109.33321829 72.5 107.5 C54.5 85.5 54.5 85.5 52.2734375 82.77734375 C50.69699624 80.8514851 49.11874508 78.9271071 47.5390625 77.00390625 C46.74242187 76.03324219 45.94578125 75.06257813 45.125 74.0625 C44.40570312 73.18722656 43.68640625 72.31195313 42.9453125 71.41015625 C41.25034023 69.31016049 39.61921239 67.15894985 38 65 C37.67 97.01 37.34 129.02 37 162 C24.79 162 12.58 162 0 162 C0 108.54 0 55.08 0 0 Z " fill="#FDFDFD" transform="translate(565,72)"/>
  <path d="M0 0 C12.54 0 25.08 0 38 0 C45.42095046 15.79109226 52.64490735 31.63529541 59.625 47.625 C65.85777155 61.90084321 72.18474232 76.12901484 78.625 90.3125 C84.73437185 103.77109371 90.8104485 117.24315667 96.8125 130.75 C97.13752502 131.48054596 97.46255005 132.21109192 97.79742432 132.96377563 C101.0504604 140.27805487 104.27986963 147.60214291 107.44921875 154.953125 C107.94123779 156.09426758 108.43325684 157.23541016 108.94018555 158.41113281 C110 161 110 161 110 162 C97.13 162 84.26 162 71 162 C67.35357568 154.09941398 63.83058042 146.33397804 60.6875 138.25 C60.00622146 136.50430303 59.32275163 134.75945907 58.63671875 133.015625 C58.34498779 132.26571289 58.05325684 131.51580078 57.75268555 130.74316406 C57.13033066 129.00737551 57.13033066 129.00737551 56 128 C53.69946165 127.90556665 51.39597827 127.88257872 49.09350586 127.88647461 C48.01064049 127.88625557 48.01064049 127.88625557 46.90589905 127.8860321 C44.50885053 127.88673131 42.11187877 127.89452405 39.71484375 127.90234375 C38.05717511 127.9042079 36.39950593 127.90563182 34.74183655 127.90663147 C30.37045786 127.91045688 25.99911219 127.92028735 21.62774658 127.93133545 C17.17045539 127.94154908 12.71315889 127.94612899 8.25585938 127.95117188 C-0.49610893 127.9619096 -9.24805036 127.97898629 -18 128 C-18.95358228 130.04910023 -19.90527996 132.09907756 -20.85620117 134.14941406 C-21.38638351 135.29089905 -21.91656586 136.43238403 -22.46281433 137.60845947 C-24.57224941 142.26257167 -26.46126427 146.98863631 -28.3125 151.75 C-28.99377854 153.49569697 -29.67724837 155.24054093 -30.36328125 156.984375 C-30.65501221 157.73428711 -30.94674316 158.48419922 -31.24731445 159.25683594 C-32 161 -32 161 -33 162 C-35.8116338 162.08861992 -38.59858255 162.11522355 -41.41015625 162.09765625 C-42.25219101 162.0962413 -43.09422577 162.09482635 -43.96177673 162.09336853 C-46.66205335 162.08775263 -49.36224828 162.07519748 -52.0625 162.0625 C-53.88867068 162.05748705 -55.71484266 162.05292379 -57.54101562 162.04882812 C-62.02737542 162.03777804 -66.51367384 162.02050279 -71 162 C-68.71427956 154.64259682 -65.75971962 147.75374137 -62.5625 140.75 C-61.38976301 138.16113348 -60.22046578 135.57071557 -59.05078125 132.98046875 C-58.73466888 132.28155014 -58.41855652 131.58263153 -58.09286499 130.86253357 C-54.19855 122.24436697 -50.36794854 113.59790365 -46.53262329 104.95336914 C-40.18321515 90.64261383 -33.81543584 76.34042467 -27.40878296 62.0552063 C-18.15543195 41.42139449 -9.06506418 20.71711743 0 0 Z " fill="#FDFDFD" transform="translate(1119,72)"/>
  <path d="M0 0 C87.51338631 0 87.51338631 0 99.5 6.75 C100.15669678 7.10143066 100.81339355 7.45286133 101.48999023 7.81494141 C113.81972978 14.57960751 122.23193226 23.50523356 127.0546875 36.9375 C128.50634716 42.14888317 128.32912797 47.44166573 128.3125 52.8125 C128.32861328 53.84181641 128.34472656 54.87113281 128.36132812 55.93164062 C128.37000891 69.65595889 123.63718295 80.8479608 114.28125 90.8671875 C101.86440758 102.47608469 84.39674984 107.38790407 67.71484375 107.1953125 C66.77314835 107.1924826 65.83145294 107.18965271 64.86122131 107.18673706 C61.88651209 107.17564207 58.91211649 107.15055802 55.9375 107.125 C53.90690542 107.11495637 51.87630608 107.10583296 49.84570312 107.09765625 C44.89692067 107.07744889 39.94880674 107.03828041 35 107 C35 120.53 35 134.06 35 148 C23.45 148 11.9 148 0 148 C0 99.16 0 50.32 0 0 Z " fill="#FCFCFC" transform="translate(879,308)"/>
  <path d="M0 0 C40.26 0 80.52 0 122 0 C122 9.9 122 19.8 122 30 C93.95 30 65.9 30 37 30 C37 41.55 37 53.1 37 65 C62.08 65 87.16 65 113 65 C113 74.9 113 84.8 113 95 C87.92 95 62.84 95 37 95 C37 107.21 37 119.42 37 132 C66.04 132 95.08 132 125 132 C125 141.9 125 151.8 125 162 C83.75 162 42.5 162 0 162 C0 108.54 0 55.08 0 0 Z " fill="#FDFDFD" transform="translate(752,72)"/>
  <path d="M0 0 C40.26 0 80.52 0 122 0 C122 9.9 122 19.8 122 30 C93.95 30 65.9 30 37 30 C37 41.55 37 53.1 37 65 C61.75 65 86.5 65 112 65 C112 74.57 112 84.14 112 94 C87.25 94 62.5 94 37 94 C37 106.54 37 119.08 37 132 C66.04 132 95.08 132 125 132 C125 141.9 125 151.8 125 162 C83.75 162 42.5 162 0 162 C0 108.54 0 55.08 0 0 Z " fill="#FEFEFE" transform="translate(1375,72)"/>
  <path d="M0 0 C11.55 0 23.1 0 35 0 C36.85238281 4.1765625 36.85238281 4.1765625 38.7421875 8.4375 C47.20056512 27.49918214 55.67786793 46.5516641 64.25 65.5625 C71.64667415 81.96899272 78.98980617 98.3985226 86.27676392 114.85404968 C88.05058146 118.85968562 89.82855287 122.86342955 91.61109924 126.8651886 C92.91030103 129.7838383 94.20480786 132.70456924 95.5 135.625 C95.9633374 136.66261475 96.4266748 137.70022949 96.90405273 138.76928711 C97.31727783 139.70393799 97.73050293 140.63858887 98.15625 141.6015625 C98.51525391 142.40932129 98.87425781 143.21708008 99.24414062 144.04931641 C100 146 100 146 100 148 C88.12 148 76.24 148 64 148 C58.0625 133.0625 58.0625 133.0625 56.19165039 128.34399414 C55.46449829 126.52049438 55.46449829 126.52049438 54.72265625 124.66015625 C54.46867065 124.01751831 54.21468506 123.37488037 53.95300293 122.71276855 C52.86101154 119.62365513 52.86101154 119.62365513 51 117 C48.88318683 116.9057826 46.76319242 116.88257239 44.64428711 116.88647461 C43.98089828 116.88632858 43.31750946 116.88618256 42.63401794 116.8860321 C40.43176044 116.88673119 38.22958655 116.89452335 36.02734375 116.90234375 C34.50419664 116.90420794 32.98104893 116.90563184 31.457901 116.90663147 C27.44162349 116.91045654 23.42538192 116.92028672 19.40911865 116.93133545 C14.59420261 116.9433445 9.77927456 116.94795186 4.96434784 116.95378876 C-2.35712647 116.96349849 -9.67852185 116.98265509 -17 117 C-21.29 127.23 -25.58 137.46 -30 148 C-41.55 148 -53.1 148 -65 148 C-62.96102648 141.88307945 -60.8677698 136.18265471 -58.18359375 130.375 C-57.63119774 129.16390564 -57.63119774 129.16390564 -57.06764221 127.92834473 C-56.27503457 126.19105799 -55.48054116 124.45463056 -54.68432617 122.71899414 C-52.52747631 118.01548193 -50.38650394 113.30476129 -48.24609375 108.59375 C-47.80623138 107.62602661 -47.36636902 106.65830322 -46.91317749 105.66125488 C-42.5209982 95.97901682 -38.25187854 86.2444653 -34 76.5 C-26.9259313 60.29647787 -19.6939295 44.1689416 -12.3671875 28.078125 C-11.79559906 26.8210096 -11.79559906 26.8210096 -11.21246338 25.53849792 C-10.51543898 24.0060412 -9.81715821 22.47415475 -9.11712646 20.94306946 C-5.96179999 14.00642456 -3.00480304 7.01120709 0 0 Z " fill="#FDFDFD" transform="translate(1270,308)"/>
  <path d="M0 0 C1.43352212 0.00015908 2.86704998 0.00585132 4.30053711 0.01586914 C5.43041298 0.01799156 5.43041298 0.01799156 6.58311462 0.02015686 C8.99807646 0.02577163 11.41294687 0.03832656 13.82788086 0.05102539 C15.46134307 0.05603849 17.09480672 0.06060173 18.72827148 0.06469727 C22.74067671 0.07574585 26.75301326 0.09302033 30.76538086 0.11352539 C39.20634844 18.39415989 47.52052244 36.72276886 55.57788086 55.17602539 C61.83030453 69.49393247 68.18497323 83.7609579 74.64038086 97.98852539 C75.44006419 99.75234126 76.23970664 101.51617565 77.03930664 103.2800293 C78.19553811 105.83015303 79.35185511 108.38023789 80.50836182 110.93023682 C84.00129949 118.63207732 87.49086715 126.33522751 90.95288086 134.05102539 C91.45223145 135.15236816 91.95158203 136.25371094 92.46606445 137.38842773 C92.90901855 138.3792334 93.35197266 139.37003906 93.80834961 140.39086914 C94.19015381 141.2389917 94.57195801 142.08711426 94.96533203 142.9609375 C95.76538086 145.11352539 95.76538086 145.11352539 95.76538086 148.11352539 C84.21538086 148.11352539 72.66538086 148.11352539 60.76538086 148.11352539 C53.75339456 132.9208884 53.75339456 132.9208884 50.89038086 125.92602539 C50.58358398 125.19061523 50.27678711 124.45520508 49.96069336 123.69750977 C47.76538086 118.3611363 47.76538086 118.3611363 47.76538086 116.11352539 C24.99538086 116.11352539 2.22538086 116.11352539 -21.23461914 116.11352539 C-22.22461914 119.08352539 -23.21461914 122.05352539 -24.23461914 125.11352539 C-24.95504769 127.00736303 -25.694334 128.89425333 -26.46118164 130.76977539 C-26.85305664 131.72883789 -27.24493164 132.68790039 -27.64868164 133.67602539 C-28.04829102 134.64540039 -28.44790039 135.61477539 -28.85961914 136.61352539 C-29.47063477 138.11399414 -29.47063477 138.11399414 -30.09399414 139.64477539 C-33.10573089 146.98463714 -33.10573089 146.98463714 -34.23461914 148.11352539 C-36.82821236 148.20204068 -39.39501605 148.22878484 -41.98852539 148.21118164 C-42.76397202 148.20976669 -43.53941864 148.20835175 -44.33836365 148.20689392 C-46.82465408 148.20127884 -49.31085574 148.18872385 -51.79711914 148.17602539 C-53.47875847 148.17101233 -55.1603992 148.16644909 -56.84204102 148.16235352 C-60.9729348 148.15130452 -65.1037619 148.13402984 -69.23461914 148.11352539 C-67.71735848 143.23940897 -65.77694697 138.67797676 -63.66430664 134.04321289 C-63.31144592 133.26251938 -62.95858521 132.48182587 -62.59503174 131.67747498 C-61.83390074 129.99410893 -61.07148779 128.31132204 -60.30792236 126.62905884 C-58.25112823 122.09678887 -56.20451127 117.55992268 -54.15649414 113.02368164 C-53.73912994 112.09990219 -53.32176575 111.17612274 -52.89175415 110.22434998 C-49.01502119 101.63935964 -45.17953967 93.03641675 -41.35961914 84.42602539 C-40.71745305 82.97924577 -40.07528178 81.53246845 -39.43310547 80.08569336 C-38.09589894 77.07251273 -36.75914494 74.05913173 -35.42260742 71.0456543 C-31.653099 62.54735794 -27.8787458 54.05121298 -24.10394287 45.55526733 C-22.843183 42.71721801 -21.5830579 39.87888752 -20.32299805 37.04052734 C-17.96450937 31.72960508 -15.60070094 26.42106853 -13.23461914 21.11352539 C-12.81412292 20.16912598 -12.39362671 19.22472656 -11.96038818 18.25170898 C-10.70927412 15.44409407 -9.45485876 12.63797793 -8.19946289 9.83227539 C-7.81544815 8.9696106 -7.43143341 8.1069458 -7.03578186 7.21813965 C-6.68237228 6.43015991 -6.32896271 5.64218018 -5.96484375 4.83032227 C-5.65389267 4.1345105 -5.34294159 3.43869873 -5.02256775 2.72180176 C-3.61524818 -0.15066832 -3.51631648 0.12341212 0 0 Z " fill="#FDFDFD" transform="translate(767.234619140625,307.886474609375)"/>
  <path d="M0 0 C13.53 0 27.06 0 41 0 C42.10472656 2.62195313 43.20945312 5.24390625 44.34765625 7.9453125 C53.62811695 29.96027755 62.94767644 51.95828084 72.3125 73.9375 C73.04873093 75.66555878 73.04873093 75.66555878 73.79983521 77.42852783 C78.85439786 89.29089861 83.91202048 101.15191634 89 113 C91.29791599 110.14411303 92.83300208 107.40659891 94.25 104.03125 C94.68344727 103.00845947 95.11689453 101.98566895 95.56347656 100.93188477 C96.0375293 99.79936279 96.51158203 98.66684082 97 97.5 C97.79230555 95.62941689 98.5846607 93.75885447 99.37823486 91.8888092 C99.95950792 90.51888905 100.54017573 89.14871196 101.12030029 87.77830505 C104.71529453 79.2924147 108.37583471 70.83485517 112.03353882 62.37585449 C113.2511964 59.55973303 114.46811272 56.74329236 115.68481445 53.92675781 C123.45138769 35.94894371 131.22538569 17.97433766 139 0 C151.21 0 163.42 0 176 0 C175.24776337 3.76118313 174.55342783 6.35885208 173.06079102 9.76635742 C172.6577626 10.69320847 172.25473419 11.62005951 171.8394928 12.57499695 C171.17837746 14.07508049 171.17837746 14.07508049 170.50390625 15.60546875 C169.81408913 17.1871862 169.81408913 17.1871862 169.1103363 18.80085754 C168.11776435 21.07544584 167.12297705 23.34906842 166.1262207 25.62182617 C163.74035492 31.06219617 161.36748422 36.5082297 158.99345016 41.95376968 C158.18908037 43.79830231 157.38410105 45.64256797 156.57901001 47.48678589 C152.0046716 57.97086575 147.49127299 68.48013335 143 79 C135.93014141 95.54480662 128.78902056 112.05826111 121.625 128.5625 C121.12178223 129.72209229 120.61856445 130.88168457 120.10009766 132.07641602 C118.66367985 135.38583774 117.22655593 138.69495161 115.7890625 142.00390625 C115.3638028 142.9833168 114.93854309 143.96272736 114.50039673 144.97181702 C114.09759491 145.89836594 113.69479309 146.82491486 113.27978516 147.77954102 C112.93436676 148.57441422 112.58894836 149.36928741 112.23306274 150.18824768 C110.50355525 154.13204271 108.74897745 158.06480073 107 162 C94.79 162 82.58 162 70 162 C63.1178303 148.2356606 63.1178303 148.2356606 60.1796875 141.2578125 C59.84337814 140.46842285 59.50706879 139.6790332 59.16056824 138.86572266 C58.43874932 137.17076776 57.71852297 135.47513387 56.99978638 133.77886963 C55.02515767 129.11984526 53.03731294 124.46645861 51.05078125 119.8125 C50.63700729 118.84240997 50.22323334 117.87231995 49.79692078 116.87283325 C45.26934083 106.26821034 40.66868368 95.69566025 36.0625 85.125 C28.45872405 67.66848321 20.89115438 50.19670875 13.35375977 32.71142578 C12.98312912 31.85201385 12.61249847 30.99260193 12.2306366 30.10714722 C11.51179051 28.44011736 10.79336343 26.77290674 10.07539368 25.10549927 C8.37003978 21.15029669 6.65138163 17.20183064 4.90478516 13.26464844 C4.57589798 12.52141327 4.2470108 11.7781781 3.90815735 11.01242065 C3.29078821 9.61996517 2.67034957 8.22886505 2.04631042 6.83938599 C0 2.22143979 0 2.22143979 0 0 Z " fill="#FDFDFD" transform="translate(884,72)"/>
  <path d="M0 0 C3.83885006 3.17152308 5.97329473 5.38313864 7.6171875 10.17578125 C7.02292969 10.70945312 6.42867187 11.243125 5.81640625 11.79296875 C-0.60420268 17.56452701 -6.9996044 23.36293585 -13.3828125 29.17578125 C-14.3315625 28.30953125 -15.2803125 27.44328125 -16.2578125 26.55078125 C-29.42385461 15.36360318 -43.15532858 11.8834435 -60.13183594 12.94824219 C-70.75697256 14.02227986 -80.48676864 20.45753768 -87.75 28.05859375 C-94.40295267 36.6851496 -97.77361691 46.75132609 -97.6328125 57.55078125 C-97.62604492 58.30174072 -97.61927734 59.0527002 -97.61230469 59.82641602 C-97.51279124 65.16253532 -97.09156273 70.08858771 -95.3828125 75.17578125 C-95.12628906 75.98144531 -94.86976563 76.78710938 -94.60546875 77.6171875 C-90.27460703 89.79192753 -82.63806508 96.46149529 -71.296875 102.23828125 C-60.22072376 107.26849841 -45.08672588 106.9062737 -33.6953125 103.11328125 C-27.78518842 100.66579457 -23.13668751 97.40039781 -18.3828125 93.17578125 C-16.72146187 91.83582989 -15.05596607 90.50096527 -13.3828125 89.17578125 C-12.69505737 89.82595215 -12.69505737 89.82595215 -11.9934082 90.48925781 C-9.8958854 92.47006042 -7.79562711 94.4479393 -5.6953125 96.42578125 C-4.97408203 97.10769531 -4.25285156 97.78960937 -3.50976562 98.4921875 C0.09066103 101.8788902 3.68681688 105.16792365 7.6171875 108.17578125 C6.04571456 112.03303302 3.64114646 114.35341955 0.6171875 117.17578125 C0.15828125 117.63984375 -0.300625 118.10390625 -0.7734375 118.58203125 C-17.02786784 134.01553077 -39.52710363 135.69566886 -60.65234375 135.4453125 C-78.20568437 134.95129778 -95.33932419 128.04019717 -108.3828125 116.17578125 C-109.61064453 115.10263672 -109.61064453 115.10263672 -110.86328125 114.0078125 C-125.97916205 99.98960534 -132.94405895 80.29835627 -133.7175293 60.0222168 C-134.07229969 41.00867389 -127.23155416 22.31765109 -114.3828125 8.17578125 C-113.72925781 7.43070312 -113.07570313 6.685625 -112.40234375 5.91796875 C-83.91608506 -24.69567902 -31.94779091 -24.45839075 0 0 Z " fill="#FDFDFD" transform="translate(689.3828125,322.82421875)"/>
  <path d="M0 0 C31.02 0 62.04 0 94 0 C94.08032734 28.25737203 94.08032734 28.25737203 94.10050774 42.27343559 C94.11156548 49.83612472 94.12557641 57.39876945 94.15087891 64.96142578 C94.17306044 71.59446351 94.18458564 78.22746591 94.18975449 84.8605423 C94.19343578 87.38493861 94.20062427 89.90933245 94.21146011 92.43370819 C94.22608219 95.98288046 94.22797346 99.53185691 94.22705078 103.08105469 C94.23424133 104.11324631 94.24143188 105.14543793 94.24884033 106.20890808 C94.20349 122.44208435 90.35751496 138.06663797 78.96875 150.15625 C65.63727152 162.73665927 48.12170858 165.80182607 30.328125 165.3046875 C14.62055201 164.45391922 -3.29623955 157.86168704 -14 146 C-15.01788001 144.68026591 -16.02268283 143.35004775 -17 142 C-15.44723191 138.48584063 -13.33432968 135.81419888 -10.875 132.875 C-7.03398696 128.27197954 -3.34130046 123.5832432 0.2734375 118.80078125 C0.84320312 118.20652344 1.41296875 117.61226563 2 117 C2.99 117 3.98 117 5 117 C6.5078125 118.5390625 6.5078125 118.5390625 8.125 120.625 C13.90909464 127.52189086 21.04381418 132.36447645 30.1484375 133.3359375 C37.89190722 133.42968411 43.6649501 132.95712247 49.5234375 127.609375 C56.01836895 120.47621329 56.13229983 111.03326713 56.20532227 101.86157227 C56.21522186 101.08026443 56.22512146 100.2989566 56.23532104 99.49397278 C56.26667943 96.9348138 56.29159095 94.37563631 56.31640625 91.81640625 C56.33699799 90.03278648 56.35799502 88.24917135 56.37937927 86.46556091 C56.43437074 81.78854139 56.48388039 77.11147951 56.53222656 72.43438721 C56.59148005 66.81331029 56.65758095 61.19231017 56.72252655 55.57129669 C56.82024731 47.04757834 56.90930065 38.52380898 57 30 C38.19 30 19.38 30 0 30 C0 20.1 0 10.2 0 0 Z " fill="#FDFDFD" transform="translate(1244,72)"/>
  <path d="M0 0 C42.57 0 85.14 0 129 0 C129 9.24 129 18.48 129 28 C113.49 28 97.98 28 82 28 C82 67.6 82 107.2 82 148 C70.78 148 59.56 148 48 148 C48 108.4 48 68.8 48 28 C32.16 28 16.32 28 0 28 C0 18.76 0 9.52 0 0 Z " fill="#FDFEFE" transform="translate(1084,308)"/>
  <path d="M0 0 C11.22 0 22.44 0 34 0 C34 39.6 34 79.2 34 120 C58.42 120 82.84 120 108 120 C108 129.24 108 138.48 108 148 C72.36 148 36.72 148 0 148 C0 99.16 0 50.32 0 0 Z " fill="#FEFEFE" transform="translate(1386,308)"/>
  <path d="M0 0 C11.22 0 22.44 0 34 0 C34 48.84 34 97.68 34 148 C22.78 148 11.56 148 0 148 C0 99.16 0 50.32 0 0 Z " fill="#FEFEFE" transform="translate(1032,308)"/>
  <path d="M0 0 C5.73375 -0.061875 11.4675 -0.12375 17.375 -0.1875 C19.16341309 -0.21481201 20.95182617 -0.24212402 22.79443359 -0.27026367 C33.58889423 -0.36728488 43.52745647 -0.05270844 52.23828125 7.15625 C57.32211289 12.47680108 59.2987598 18.21110704 59.625 25.5 C59.27631543 33.50089736 56.59427779 39.84753474 50.8125 45.4375 C41.05845171 52.5330787 29.33779218 51.35759046 17.875 51.1875 C9.026875 51.0946875 9.026875 51.0946875 0 51 C0 34.17 0 17.34 0 0 Z " fill="#283445" transform="translate(914,336)"/>
  <path d="M0 0 C0.66 0 1.32 0 2 0 C4.29317024 5.52763336 6.58604222 11.05539031 8.87866211 16.58325195 C9.65527694 18.45568009 10.43196708 20.32807699 11.20874023 22.20043945 C11.58264893 23.10173584 11.95655762 24.00303223 12.34179688 24.93164062 C12.90161758 26.28100204 12.90161758 26.28100204 13.4727478 27.65762329 C14.22205209 29.46507265 14.97060899 31.27283204 15.71841431 33.0809021 C17.5066632 37.40452309 19.30252199 41.72447443 21.12060547 46.03564453 C21.44854599 46.81827164 21.77648651 47.60089874 22.11436462 48.40724182 C22.72725883 49.86959684 23.34418433 51.33027125 23.96583557 52.78892517 C25.17989338 55.69719113 26 57.81389667 26 61 C9.17 61 -7.66 61 -25 61 C-16.90123163 40.56618443 -8.49295489 20.27246207 0 0 Z " fill="#2A3747" transform="translate(1137,110)"/>
  <path d="M0 0 C3.12735934 3.63376148 4.65823539 7.66103103 6.3984375 12.0625 C6.71527496 12.84963379 7.03211243 13.63676758 7.35855103 14.44775391 C8.36964862 16.96295976 9.37255152 19.48133614 10.375 22 C11.36948706 24.48283175 12.36564776 26.96498653 13.36212158 29.44702148 C14.00770909 31.05664049 14.6518907 32.66682414 15.2946167 34.27758789 C17.50385483 39.80638047 19.79673318 45.2911542 22.17431641 50.75 C23 53 23 53 23 56 C8.15 56 -6.7 56 -22 56 C-21.3038279 51.8229674 -20.84304654 49.17441871 -19.28173828 45.48266602 C-18.93112335 44.64482071 -18.58050842 43.8069754 -18.2192688 42.94374084 C-17.65053543 41.61227272 -17.65053543 41.61227272 -17.0703125 40.25390625 C-16.48381424 38.85989845 -16.48381424 38.85989845 -15.88546753 37.43772888 C-14.63801035 34.47673077 -13.38163464 31.51961322 -12.125 28.5625 C-11.28717322 26.57772173 -10.44992751 24.59269806 -9.61328125 22.60742188 C-6.4304481 15.06234957 -3.23108467 7.52453979 0 0 Z " fill="#293647" transform="translate(780,342)"/>
  <path d="M0 0 C1.63463462 2.45195193 2.71466625 4.4918476 3.83178711 7.17675781 C4.35759621 8.43386566 4.35759621 8.43386566 4.89402771 9.71636963 C5.268022 10.6194989 5.6420163 11.52262817 6.02734375 12.453125 C6.41692764 13.38670837 6.80651154 14.32029175 7.207901 15.28216553 C8.45408383 18.27021087 9.69589438 21.2600502 10.9375 24.25 C12.1765072 27.22525547 13.41639355 30.20014339 14.65638733 33.17498779 C15.42738794 35.02561193 16.1976385 36.87654878 16.96702576 38.72784424 C17.32071732 39.57852478 17.67440887 40.42920532 18.03881836 41.30566406 C18.37146698 42.10814575 18.7041156 42.91062744 19.04684448 43.73742676 C19.92314731 45.81756929 20.8383149 47.8762445 21.76000977 49.93652344 C23 53 23 53 23 56 C8.15 56 -6.7 56 -22 56 C-20.87491237 49.24947421 -20.87491237 49.24947421 -19.49707031 45.91333008 C-19.19295227 45.16847855 -18.88883423 44.42362701 -18.57550049 43.65620422 C-18.24636658 42.86860214 -17.91723267 42.08100006 -17.578125 41.26953125 C-17.2362616 40.43846359 -16.89439819 39.60739594 -16.54217529 38.75114441 C-15.81880524 36.99589131 -15.09244316 35.24186866 -14.36328125 33.48901367 C-13.26184184 30.84096976 -12.16915156 28.18945808 -11.078125 25.53710938 C-7.53692268 16.95293672 -3.95120045 8.40530277 0 0 Z " fill="#2A3647" transform="translate(1287,342)"/>
</svg>